<svg width="64" height="64" viewBox="0 0 64 64" fill="none" xmlns="http://www.w3.org/2000/svg">
<circle cx="32" cy="32" r="32" fill="white"/>
<g clip-path="url(#clip0_8725_10577)">
<path d="M32.6945 20.2625C34.4027 18.011 36.7776 18 36.7776 18C36.7776 18 37.1309 20.1168 35.4338 22.156C33.6218 24.3333 31.5622 23.977 31.5622 23.977C31.5622 23.977 31.1754 22.2646 32.6945 20.2625ZM31.7794 25.4599C32.6582 25.4599 34.2893 24.2518 36.4123 24.2518C40.0666 24.2518 41.5043 26.8522 41.5043 26.8522C41.5043 26.8522 38.6925 28.2898 38.6925 31.778C38.6925 35.713 42.1952 37.0692 42.1952 37.0692C42.1952 37.0692 39.7467 43.9608 36.4395 43.9608C34.9205 43.9608 33.7395 42.9371 32.1391 42.9371C30.508 42.9371 28.8895 43.999 27.8353 43.999C24.8153 43.999 21 37.4616 21 32.2066C21 27.0365 24.2294 24.3243 27.2585 24.3243C29.2276 24.3243 30.7557 25.4599 31.7794 25.4599Z" fill="black"/>
</g>
<defs>
<clipPath id="clip0_8725_10577">
<rect width="21.1952" height="26" fill="white" transform="translate(21 18)"/>
</clipPath>
</defs>
</svg>
